HIERARCHY
ROOT hips
{
  OFFSET 0 10.6860622 2.3727825e-15
  CHANNELS 6 Xposition Yposition Zposition Yrotation Xrotation Zrotation
  JOINT leftUpperLeg
  {
    OFFSET 0.6642549969 -0.9402397400000004 0
    CHANNELS 3 Yrotation Xrotation Zrotation
    JOINT leftLowerLeg
    {
      OFFSET 0 -3.997221335632195 0
      CHANNELS 3 Yrotation Xrotation Zrotation
      JOINT leftFoot
      {
        OFFSET -0.13777839790000004 -4.6145792000000005 -0.22186036399999998
        CHANNELS 3 Yrotation Xrotation Zrotation
        JOINT leftToes
        {
          OFFSET -0.03777410834999995 -0.9130806927000008 0.85230013
          CHANNELS 3 Yrotation Xrotation Zrotation
          End Site
          {
            OFFSET -0.03777410834999995 -0.9130806927000008 0.85230013
          }
        }
      }
    }
  }
  JOINT rightUpperLeg
  {
    OFFSET -0.6642778626 -0.9402397400000004 0
    CHANNELS 3 Yrotation Xrotation Zrotation
    JOINT rightLowerLeg
    {
      OFFSET 0 -3.997221452859387 0
      CHANNELS 3 Yrotation Xrotation Zrotation
      JOINT rightFoot
      {
        OFFSET 0.1377926176 -4.6145792000000005 -0.22185782299999995
        CHANNELS 3 Yrotation Xrotation Zrotation
        JOINT rightToes
        {
          OFFSET 0.037780746850000047 -0.9130806927000008 0.85230167
          CHANNELS 3 Yrotation Xrotation Zrotation
          End Site
          {
            OFFSET 0.037780746850000047 -0.9130806927000008 0.85230167
          }
        }
      }
    }
  }
  JOINT spine
  {
    OFFSET 0 0.13988381660000015 0
    CHANNELS 3 Yrotation Xrotation Zrotation
    JOINT chest
    {
      OFFSET 0 0.6191039003973773 0
      CHANNELS 3 Yrotation Xrotation Zrotation
      JOINT upperChest
      {
        OFFSET 0 0.9855186130586943 0
        CHANNELS 3 Yrotation Xrotation Zrotation
        JOINT leftShoulder
        {
          OFFSET 0.1807663869 1.5087829790000005 0
          CHANNELS 3 Yrotation Xrotation Zrotation
          JOINT leftUpperArm
          {
            OFFSET 0.5985063006419806 0 0
            CHANNELS 3 Yrotation Xrotation Zrotation
            JOINT leftLowerArm
            {
              OFFSET 2.2993332369501065 0 0
              CHANNELS 3 Yrotation Xrotation Zrotation
              JOINT leftHand
              {
                OFFSET 2.395047042602395 0 0
                CHANNELS 3 Yrotation Xrotation Zrotation
                JOINT leftIndexProximal
                {
                  OFFSET 0.5766295810000004 0.04556643899499946 0.17265095988184
                  CHANNELS 3 Yrotation Xrotation Zrotation
                  JOINT leftIndexIntermediate
                  {
                    OFFSET 0.2957229000000008 -0.019352197700001517 -0.007932640616999987
                    CHANNELS 3 Yrotation Xrotation Zrotation
                    JOINT leftIndexDistal
                    {
                      OFFSET 0.19008243099999922 -0.012484908149998475 -0.002786250786000012
                      CHANNELS 3 Yrotation Xrotation Zrotation
                      End Site
                      {
                        OFFSET 0.19008243099999922 -0.012484908149998475 -0.002786250786000012
                      }
                    }
                  }
                }
                JOINT leftMiddleProximal
                {
                  OFFSET 0.5834975091000001 0.0524350405149987 0.02204081888183999
                  CHANNELS 3 Yrotation Xrotation Zrotation
                  JOINT leftMiddleIntermediate
                  {
                    OFFSET 0.33880573540000003 -0.019871473270000717 -0.00000971183179999946
                    CHANNELS 3 Yrotation Xrotation Zrotation
                    JOINT leftMiddleDistal
                    {
                      OFFSET 0.20676022730000088 -0.012221336379999448 0.0001471936708000235
                      CHANNELS 3 Yrotation Xrotation Zrotation
                      End Site
                      {
                        OFFSET 0.20676022730000088 -0.012221336379999448 0.0001471936708000235
                      }
                    }
                  }
                }
                JOINT leftLittleProximal
                {
                  OFFSET 0.5344154683999995 -0.012880921405001189 -0.24414037221816004
                  CHANNELS 3 Yrotation Xrotation Zrotation
                  JOINT leftLittleIntermediate
                  {
                    OFFSET 0.21758961730000093 -0.011650919939999227 0.011893592810000034
                    CHANNELS 3 Yrotation Xrotation Zrotation
                    JOINT leftLittleDistal
                    {
                      OFFSET 0.1475273964999999 -0.008152365682999818 0.006001092492999946
                      CHANNELS 3 Yrotation Xrotation Zrotation
                      End Site
                      {
                        OFFSET 0.1475273964999999 -0.008152365682999818 0.006001092492999946
                      }
                    }
                  }
                }
                JOINT leftRingProximal
                {
                  OFFSET 0.5799399463000003 0.026911854694997794 -0.12150566991816003
                  CHANNELS 3 Yrotation Xrotation Zrotation
                  JOINT leftRingIntermediate
                  {
                    OFFSET 0.26167887460000006 -0.013480186499999602 0.010996293000000053
                    CHANNELS 3 Yrotation Xrotation Zrotation
                    JOINT leftRingDistal
                    {
                      OFFSET 0.17667108799999987 -0.008990287899999228 0.0055541023999999065
                      CHANNELS 3 Yrotation Xrotation Zrotation
                      End Site
                      {
                        OFFSET 0.17667108799999987 -0.008990287899999228 0.0055541023999999065
                      }
                    }
                  }
                }
                JOINT leftThumbProximal
                {
                  OFFSET 0.11018806699999972 -0.09448718900500053 0.17047963138184
                  CHANNELS 3 Yrotation Xrotation Zrotation
                  JOINT leftThumbIntermediate
                  {
                    OFFSET 0.31062601459999983 -0.08126270900000132 0.15443142000000007
                    CHANNELS 3 Yrotation Xrotation Zrotation
                    JOINT leftThumbDistal
                    {
                      OFFSET 0.21627175790000086 -0.08833193599999878 0.018771167799999988
                      CHANNELS 3 Yrotation Xrotation Zrotation
                      End Site
                      {
                        OFFSET 0.21627175790000086 -0.08833193599999878 0.018771167799999988
                      }
                    }
                  }
                }
              }
            }
          }
        }
        JOINT neck
        {
          OFFSET 0 1.5463305265074576 0
          CHANNELS 3 Yrotation Xrotation Zrotation
          JOINT head
          {
            OFFSET 0 0.8456443600000344 0
            CHANNELS 3 Yrotation Xrotation Zrotation
            JOINT leftEye
            {
              OFFSET 0.30408573140000006 0.5104519199999995 0.1276382305
              CHANNELS 3 Yrotation Xrotation Zrotation
              End Site
              {
                OFFSET 0.30408573140000006 0.5104519199999995 0.1276382305
              }
            }
            JOINT rightEye
            {
              OFFSET -0.30409491089999996 0.5104519199999995 0.1276379445
              CHANNELS 3 Yrotation Xrotation Zrotation
              End Site
              {
                OFFSET -0.30409491089999996 0.5104519199999995 0.1276379445
              }
            }
            JOINT jaw
            {
              OFFSET -3.155239131000001e-7 -0.11984121820000082 0.60178107
              CHANNELS 3 Yrotation Xrotation Zrotation
              End Site
              {
                OFFSET -3.155239131000001e-7 -0.11984121820000082 0.60178107
              }
            }
          }
        }
        JOINT rightShoulder
        {
          OFFSET -0.1807303465 1.5087829790000005 0
          CHANNELS 3 Yrotation Xrotation Zrotation
          JOINT rightUpperArm
          {
            OFFSET -0.5985063796536958 0 0
            CHANNELS 3 Yrotation Xrotation Zrotation
            JOINT rightLowerArm
            {
              OFFSET -2.2993322059002854 0 0
              CHANNELS 3 Yrotation Xrotation Zrotation
              JOINT rightHand
              {
                OFFSET -2.395045314457259 0 0
                CHANNELS 3 Yrotation Xrotation Zrotation
                JOINT rightIndexProximal
                {
                  OFFSET -0.5764487688300002 0.0441371204405987 0.17361932004999997
                  CHANNELS 3 Yrotation Xrotation Zrotation
                  JOINT rightIndexIntermediate
                  {
                    OFFSET -0.29573011380000047 -0.01934826376999843 -0.007698921482999974
                    CHANNELS 3 Yrotation Xrotation Zrotation
                    JOINT rightIndexDistal
                    {
                      OFFSET -0.19008373999999884 -0.012503266380000655 -0.0026365778999999897
                      CHANNELS 3 Yrotation Xrotation Zrotation
                      End Site
                      {
                        OFFSET -0.19008373999999884 -0.012503266380000655 -0.0026365778999999897
                      }
                    }
                  }
                }
                JOINT rightMiddleProximal
                {
                  OFFSET -0.5834852037300005 0.05211639405060153 0.02307162440000001
                  CHANNELS 3 Yrotation Xrotation Zrotation
                  JOINT rightMiddleIntermediate
                  {
                    OFFSET -0.33880114510000003 -0.019952774050000954 0.0002455003561999819
                    CHANNELS 3 Yrotation Xrotation Zrotation
                    JOINT rightMiddleDistal
                    {
                      OFFSET -0.20675694929999955 -0.012273788999999091 0.00030209124000002766
                      CHANNELS 3 Yrotation Xrotation Zrotation
                      End Site
                      {
                        OFFSET -0.20675694929999955 -0.012273788999999091 0.00030209124000002766
                      }
                    }
                  }
                }
                JOINT rightLittleProximal
                {
                  OFFSET -0.5346811737299992 -0.011214256288399227 -0.24363941305000003
                  CHANNELS 3 Yrotation Xrotation Zrotation
                  JOINT rightLittleIntermediate
                  {
                    OFFSET -0.21757715980000092 -0.011771559690000988 0.01201554387
                    CHANNELS 3 Yrotation Xrotation Zrotation
                    JOINT rightLittleDistal
                    {
                      OFFSET -0.1475201849000004 -0.00822055339600003 0.006082065407000015
                      CHANNELS 3 Yrotation Xrotation Zrotation
                      End Site
                      {
                        OFFSET -0.1475201849000004 -0.00822055339600003 0.006082065407000015
                      }
                    }
                  }
                }
                JOINT rightRingProximal
                {
                  OFFSET -0.5800810755299999 0.027657985680600072 -0.12066365025000003
                  CHANNELS 3 Yrotation Xrotation Zrotation
                  JOINT rightRingIntermediate
                  {
                    OFFSET -0.26166445029999974 -0.013623118409999302 0.011164098990000045
                    CHANNELS 3 Yrotation Xrotation Zrotation
                    JOINT rightRingDistal
                    {
                      OFFSET -0.17666387530000027 -0.009072900100000503 0.005668185599999959
                      CHANNELS 3 Yrotation Xrotation Zrotation
                      End Site
                      {
                        OFFSET -0.17666387530000027 -0.009072900100000503 0.005668185599999959
                      }
                    }
                  }
                }
                JOINT rightThumbProximal
                {
                  OFFSET -0.10997596379000074 -0.09577489355940072 0.16989765924999997
                  CHANNELS 3 Yrotation Xrotation Zrotation
                  JOINT rightThumbIntermediate
                  {
                    OFFSET -0.31036620999999986 -0.08229339117999834 0.15440884469999996
                    CHANNELS 3 Yrotation Xrotation Zrotation
                    JOINT rightThumbDistal
                    {
                      OFFSET -0.21631306399999906 -0.08825326400000111 0.018656797720000014
                      CHANNELS 3 Yrotation Xrotation Zrotation
                      End Site
                      {
                        OFFSET -0.21631306399999906 -0.08825326400000111 0.018656797720000014
                      }
                    }
                  }
                }
              }
            }
          }
        }
      }
    }
  }
}
MOTION
Frames: 8
Frame Time: 0.03333333333333333
1.0045764363546383 -6.437830132562549 6.826172009368467 -135.02995363526892 -0.01788377841243039 0.0020592519223727374 -0.7933576222971576 -16.871516090894403 1.3649288200956837 161.83076040536687 71.07070762090038 166.5622862296068 -25.280186065796794 38.28957548150392 -18.775403936651173 0 0 0 0.9812134171787825 -14.579165223967982 -0.3892137271289704 -158.29068931634043 70.6158677403971 -164.86357700840742 -8.909807432440532 28.014732369102394 -4.70813706118949 0 0 0 12.673033784835845 4.994890903184581 6.206371573635867 18.10108806541987 19.000833441988085 -9.10804226865504 0 0 0 31.111202375301406 -76.74332540417332 -34.858429472935136 -47.73203035453385 35.59004721342679 -65.38092289357546 -61.30682823167691 -1.0418309460076538 29.25616766020051 28.410160086749084 -34.64577823920741 -20.55157047016444 0 0 0 0 0 0 0 0 0 0 0 0 0 0 0 0 0 0 0 0 0 0 0 0 0 0 0 0 0 0 0 0 0 0 0 0 0 0 0 0 0 0 0 0 0 17.43272754966623 11.000698481832146 3.42647354257169 10.220317880393441 -21.495418392968666 -3.712965321435812 0 0 0 0 0 0 0 0 0 -61.64451856447872 -33.69657326832596 2.0895070702843705 15.68620030806173 -1.4744363304555514 39.00456499387472 75.84231712473883 -7.016119126199096 3.3773388110806732 -22.95264086659789 -38.4453975386112 25.7074716073077 0 0 0 0 0 0 0 0 0 0 0 0 0 0 0 0 0 0 0 0 0 0 0 0 0 0 0 0 0 0 0 0 0 0 0 0 0 0 0 0 0 0 0 0 0
1.0070759735773118 -6.407679213196295 6.8264138308049125 -135.02995363526892 -0.01788377841243039 0.0020592519223727374 -0.7933576222971576 -16.871516090894403 1.3649288200956837 161.60845709145536 71.35589125107325 166.3271199276078 -25.386908412408353 38.61847027022311 -18.935428040418707 0 0 0 0.9812134171787825 -14.579165223967982 -0.3892137271289704 -158.05590879089684 70.89121410769083 -164.61346533667268 -8.97893052747472 28.34744579417285 -4.827169316494254 0 0 0 11.942205677222947 4.40310851597611 6.160406538721032 17.165321659342364 18.39073411707399 -8.723069333570887 0 0 0 32.087158183999236 -75.32141335512136 -34.37524384941341 -47.73257888828687 35.58557060166165 -65.37640006135682 -60.452284050307654 -1.564048439287757 28.99978760825587 27.32300422797874 -34.66158325020202 -19.943582058175362 0 0 0 0 0 0 0 0 0 0 0 0 0 0 0 0 0 0 0 0 0 0 0 0 0 0 0 0 0 0 0 0 0 0 0 0 0 0 0 0 0 0 0 0 0 16.520075720253583 11.052945855440253 3.252035510817682 9.742546341799205 -22.320842010208548 -3.6042602657215115 0 0 0 0 0 0 0 0 0 -58.88411661415958 -34.14443555656259 2.187891257773386 15.699620387710798 -1.4768837372308272 39.00848579727498 75.47053741954541 -7.018554831587295 3.405167849933923 -23.251856443279724 -36.88862917509551 24.987790603843727 0 0 0 0 0 0 0 0 0 0 0 0 0 0 0 0 0 0 0 0 0 0 0 0 0 0 0 0 0 0 0 0 0 0 0 0 0 0 0 0 0 0 0 0 0
1.01207531641493 -6.347377374463788 6.826897742070078 -135.02995363526892 -0.01788377841243039 0.0020592519223727374 -0.7933576222971576 -16.871516090894403 1.3649288200956837 161.1422653677578 71.92548969859706 165.8352280360997 -25.60547785138898 39.27575506309934 -19.260191155526744 0 0 0 0.9812134171787825 -14.579165223967982 -0.3892137271289704 -157.56486369753932 71.44098353085528 -164.09179194210097 -9.120248695507733 29.012688128702248 -5.06781954671177 0 0 0 10.480293274330524 3.2154664049557504 6.091148903511948 15.282899612074575 17.184040832775054 -7.922693691257833 0 0 0 33.931530749373174 -72.47714970839846 -33.27943727764146 -47.733684810191214 35.57660973111938 -65.36735591460265 -58.730866747469506 -2.5993604193966315 28.4620842180561 25.143797681266978 -34.66467236726417 -18.724489443972907 0 0 0 0 0 0 0 0 0 0 0 0 0 0 0 0 0 0 0 0 0 0 0 0 0 0 0 0 0 0 0 0 0 0 0 0 0 0 0 0 0 0 0 0 0 14.690233492405353 11.149406084550556 2.8999394738138187 8.770825238062457 -23.972571316423526 -3.3616867695201553 0 0 0 0 0 0 0 0 0 -53.26405368819499 -35.0586097891739 2.3073851708488418 15.726456831545452 -1.4817828291680333 39.01633008468919 74.72671865055091 -7.022890788619645 3.4608920573018853 -23.90667705972854 -33.77202697970915 23.553864946604232 0 0 0 0 0 0 0 0 0 0 0 0 0 0 0 0 0 0 0 0 0 0 0 0 0 0 0 0 0 0 0 0 0 0 0 0 0 0 0 0 0 0 0 0 0
1.0145749878337393 -6.3172264550975346 6.827139295114254 -135.02995363526892 -0.01788377841243039 0.0020592519223727374 -0.7933576222971576 -16.871516090894403 1.3649288200956837 160.89772853364667 72.20982821708138 165.57785510511923 -25.717374789412936 39.60410011641024 -19.42498029251577 0 0 0 0.9812134171787825 -14.579165223967982 -0.3892137271289704 -157.3079952339759 71.7153384555256 -163.81962259515248 -9.1924704852155 29.345181614891793 -5.189462718680644 0 0 0 9.749290051141875 2.6201149844219516 6.067896484898083 14.336783370593004 16.58846688267403 -7.507751459906646 0 0 0 34.81600685755192 -71.05896257027725 -32.68560837784079 -47.73423344253477 35.57212967176902 -65.36283094152252 -57.86427016739891 -3.111829799978664 28.180881021926872 24.052779759093873 -34.65189313820245 -18.114267859753483 0 0 0 0 0 0 0 0 0 0 0 0 0 0 0 0 0 0 0 0 0 0 0 0 0 0 0 0 0 0 0 0 0 0 0 0 0 0 0 0 0 0 0 0 0 13.773514775152208 11.19354759790266 2.7224523655692168 8.276520543878943 -24.79828757346634 -3.22742633615595 0 0 0 0 0 0 0 0 0 -50.41650136823555 -35.52057452889949 2.326228692674867 15.73987648640939 -1.4842346211058894 39.0202557191894 74.35471242484971 -7.0247901750486585 3.488780101020331 -24.26069085162579 -32.215820288824666 22.838622719237765 0 0 0 0 0 0 0 0 0 0 0 0 0 0 0 0 0 0 0 0 0 0 0 0 0 0 0 0 0 0 0 0 0 0 0 0 0 0 0 0 0 0 0 0 0
1.0170746592525484 -6.287075535731282 6.8273808481584295 -135.02995363526892 -0.01788377841243039 0.0020592519223727374 -0.7933576222971576 -16.871516090894403 1.3649288200956837 160.64510758176777 72.49383099740648 165.3124068670408 -25.831038429285247 39.93219681965497 -19.591392662867943 0 0 0 0.9812134171787825 -14.579165223967982 -0.38921471955759446 -157.0431363027426 71.98930963591381 -163.53947723041364 -9.265741898597701 29.67754100101835 -5.311988851985069 0 0 0 9.018835550999121 2.0245157939896687 6.052256109474419 13.389059714878886 15.999536526022238 -7.083886923896627 0 0 0 35.68348187876267 -69.64379630821696 -32.06866626264493 -47.73478483727237 35.567654061331396 -65.35830647420542 -56.99471352372048 -3.6199851434098202 27.89179606487362 22.96222080637351 -34.62956120352672 -17.504581835316735 0 0 0 0 0 0 0 0 0 0 0 0 0 0 0 0 0 0 0 0 0 0 0 0 0 0 0 0 0 0 0 0 0 0 0 0 0 0 0 0 0 0 0 0 0 12.85652714939035 11.234898187739264 2.544241997565211 7.776708455274093 -25.622910911993642 -3.0843573022417514 0 0 0 0 0 0 0 0 0 -47.55254722878505 -35.98273200864228 2.316797495689818 15.753293809763798 -1.486687376580983 39.02417655739618 73.98270635926103 -7.026509780233195 3.516680178670002 -24.631436271393962 -30.663440024895948 22.123981439687693 0 0 0 0 0 0 0 0 0 0 0 0 0 0 0 0 0 0 0 0 0 0 0 0 0 0 0 0 0 0 0 0 0 0 0 0 0 0 0 0 0 0 0 0 0
1.0220740020901666 -6.226773696998776 6.827864759423594 -135.02995363526892 -0.01788377841243039 0.0020592519223727374 -0.7933576222971576 -16.871516090894403 1.3649288200956837 160.11397138083396 73.06079292656187 164.75564464211985 -26.063818029328374 40.58770573926733 -19.929267159775602 0 0 0 0.9812134171787825 -14.579165223967982 -0.38921471955759446 -156.48791622252182 72.53605692324408 -162.95371664122396 -9.415515417547537 30.341944675414474 -5.5597902983995375 0 0 0 7.557363664302431 0.8316697295901547 6.043780626166293 11.484291900165246 14.839993886977146 -6.207956732124173 0 0 0 37.37895003604771 -66.83061973056414 -30.7826180252261 -47.73587304187122 35.55870359033506 -65.34924601657431 -55.24395606233463 -4.624123190148597 27.289216970052934 20.78131792045368 -34.556198680972216 -16.286772417773395 0 0 0 0 0 0 0 0 0 0 0 0 0 0 0 0 0 0 0 0 0 0 0 0 0 0 0 0 0 0 0 0 0 0 0 0 0 0 0 0 0 0 0 0 0 11.01998494067656 11.309243729759332 2.1854825060616343 6.758175468173713 -27.27037074608664 -2.770505276033155 0 0 0 0 0 0 0 0 0 -41.772884770654755 -36.90297316869669 2.211270762316352 15.780132045090522 -1.4915943903212665 39.03201080083113 73.23854774983097 -7.029407488504039 3.5725223490200326 -25.421919016368687 -27.571128013697912 20.692342597501327 0 0 0 0 0 0 0 0 0 0 0 0 0 0 0 0 0 0 0 0 0 0 0 0 0 0 0 0 0 0 0 0 0 0 0 0 0 0 0 0 0 0 0 0 0
1.0245735393128401 -6.196622777632522 6.828106580860041 -135.02995363526892 -0.01788377841243039 0.0020592519223727374 -0.7933576222971576 -16.871516090894403 1.3649288200956837 159.8346235673188 73.34368434020246 164.46349622062505 -26.18299925435436 40.91509224678534 -20.10079082113318 0 0 0 0.9812134171787825 -14.579165223967982 -0.38921471955759446 -156.19680887843975 72.80876289175953 -162.6473553193404 -9.492046468059536 30.673961678284293 -5.685095015141141 0 0 0 6.826421956020139 0.23493886201038 6.050958611313873 10.52787625085493 14.270351067933861 -5.756457820554771 0 0 0 38.860487254080056 -65.43208347849404 -30.940885054186566 -47.736424252570544 35.55422453194974 -65.34472322325082 -54.36308960292071 -5.11949289470286 26.975907633456647 19.692010560137756 -34.505205807033576 -15.679534954771995 0 0 0 0 0 0 0 0 0 0 0 0 0 0 0 0 0 0 0 0 0 0 0 0 0 0 0 0 0 0 0 0 0 0 0 0 0 0 0 0 0 0 0 0 0 10.100921891521972 11.34219388393069 2.0051147653418755 6.239041233551836 -28.09258812834342 -2.599275875133321 0 0 0 0 0 0 0 0 0 -38.87083768799991 -37.35638911034711 2.1149652714398193 15.793548955866688 -1.494047901292805 39.03592901135972 72.86643747616034 -7.030587308699767 3.600458594266004 -25.840385482510012 -26.034810182116544 19.974855673094005 0 0 0 0 0 0 0 0 0 0 0 0 0 0 0 0 0 0 0 0 0 0 0 0 0 0 0 0 0 0 0 0 0 0 0 0 0 0 0 0 0 0 0 0 0
1.0270730765355136 -6.166471858266268 6.828348402296488 -135.02995363526892 -0.01788377841243039 0.0020592519223727374 -0.7933576222971576 -16.871516090894403 1.3649288200956837 159.5454767491515 73.6261496829692 164.16155732356356 -26.30407677211872 41.24220512880787 -20.274074609844092 0 0 0 0.9812134171787825 -14.579165223967982 -0.38921471955759446 -155.89614765530976 73.08100050589489 -162.3314515598323 -9.569688647129805 31.005832870150435 -5.8113505824573375 0 0 0 6.095397281343268 -0.3616518733444012 6.065748512728704 9.569221478595628 13.708089326202254 -5.296343753696756 0 0 0 40.25847764571955 -64.03238129533366 -31.008549617238664 -47.73697568509995 35.54974572380842 -65.34020077879526 -53.47880426538923 -5.609995062766076 26.654730214940827 18.604146563202878 -34.444718915000074 -15.073986612467417 0 0 0 0 0 0 0 0 0 0 0 0 0 0 0 0 0 0 0 0 0 0 0 0 0 0 0 0 0 0 0 0 0 0 0 0 0 0 0 0 0 0 0 0 0 9.181656905568644 11.372302687069675 1.824211330889279 5.7130447401816555 -28.91338899484331 -2.4182048203848696 0 0 0 0 0 0 0 0 0 -35.95018882770878 -37.80531620382291 1.9891451438217058 15.806964253165459 -1.4965022690695684 39.03984242549831 72.4943254373739 -7.031586480680031 3.6284018364088895 -26.27470304994699 -24.503300419415744 19.2540708038496 0 0 0 0 0 0 0 0 0 0 0 0 0 0 0 0 0 0 0 0 0 0 0 0 0 0 0 0 0 0 0 0 0 0 0 0 0 0 0 0 0 0 0 0 0
